<?xml version="1.0" encoding="UTF-8"?>
<svg id="_レイヤー_1" data-name="レイヤー_1" xmlns="http://www.w3.org/2000/svg" baseProfile="tiny" version="1.2" viewBox="0 0 256 256">
  <!-- Generator: Adobe Illustrator 29.7.1, SVG Export Plug-In . SVG Version: 2.1.1 Build 8)  -->
  <rect x="0" y="0" width="256" height="256" rx="128" ry="128" fill="#b41b4b"/>
  <g>
    <path d="M128,21.2c-6,0-11,4.9-11,11v20h-51.1c-4.4,0-7.9,3.6-7.9,7.9v60.3c0,4.4,3.6,7.9,7.9,7.9h0c-4.4,0-7.9,3.6-7.9,7.9v60.3c0,4.4,3.6,7.9,7.9,7.9h51.1v20c0,6,4.9,11,11,11s11-4.9,11-11v-20h51.1c4.4,0,7.9-3.6,7.9-7.9v-60.3c0-4.4-3.6-7.9-7.9-7.9h0c4.4,0,7.9-3.6,7.9-7.9v-60.3c0-4.4-3.6-7.9-7.9-7.9h-51.1v-20c0-6-4.9-11-11-11h0Z" fill="#fff"/>
    <g>
      <path d="M194.9,136.3v60.3c0,2.6-2.1,4.8-4.8,4.8h-54.2v-9.6h49.4v-9.3h4.8v-9.7h-4.8v-11.1h4.8v-9.7h-4.8v-11h-49.4v-9.6h54.2c2.6,0,4.8,2.1,4.8,4.8Z"/>
      <path d="M194.9,60.1v60.3c0,2.6-2.1,4.8-4.8,4.8h-54.2v-9.6h49.4v-9.3h4.8v-9.7h-4.8v-11.1h4.8v-9.7h-4.8v-11h-49.4v-9.6h54.2c2.6,0,4.8,2.1,4.8,4.8Z"/>
      <rect x="185.3" y="172.8" width="4.8" height="9.7"/>
      <rect x="185.3" y="152" width="4.8" height="9.7"/>
      <rect x="185.3" y="96.6" width="4.8" height="9.7"/>
      <rect x="185.3" y="75.8" width="4.8" height="9.7"/>
      <polygon points="185.3 182.5 185.3 191.8 135.8 191.8 135.8 141.1 185.3 141.1 185.3 152 170.4 152 170.4 161.7 185.3 161.7 185.3 172.8 170.4 172.8 170.4 182.5 185.3 182.5" fill="#c5a922"/>
      <rect x="170.4" y="172.8" width="14.9" height="9.7" fill="#231815"/>
      <rect x="170.4" y="152" width="14.9" height="9.7" fill="#231815"/>
      <polygon points="185.3 106.3 185.3 115.6 135.8 115.6 135.8 64.9 185.3 64.9 185.3 75.8 170.4 75.8 170.4 85.5 185.3 85.5 185.3 96.6 170.4 96.6 170.4 106.3 185.3 106.3" fill="#c5a922"/>
      <rect x="170.4" y="96.6" width="14.9" height="9.7" fill="#231815"/>
      <rect x="170.4" y="75.8" width="14.9" height="9.7" fill="#231815"/>
      <path d="M135.8,201.4v23.2c0,4.3-3.5,7.8-7.8,7.8s-7.8-3.5-7.8-7.8v-23.2h15.7Z"/>
      <rect x="120.2" y="191.8" width="15.7" height="9.6"/>
      <rect x="120.2" y="141.1" width="15.7" height="50.7"/>
      <rect x="120.2" y="131.5" width="15.7" height="9.6"/>
      <rect x="120.2" y="125.2" width="15.7" height="6.3"/>
      <rect x="120.2" y="115.6" width="15.7" height="9.6"/>
      <rect x="120.2" y="64.9" width="15.7" height="50.7"/>
      <rect x="120.2" y="55.3" width="15.7" height="9.6"/>
      <path d="M135.8,32.1v23.2h-15.7v-23.2c0-4.3,3.5-7.8,7.8-7.8s7.8,3.5,7.8,7.8Z"/>
      <path d="M120.2,191.8v9.6h-54.2c-2.6,0-4.8-2.1-4.8-4.8v-60.3c0-2.6,2.1-4.8,4.8-4.8h54.2v9.6h-49.4v11h-4.8v9.7h4.8v11.1h-4.8v9.7h4.8v9.3h49.4Z"/>
      <polygon points="120.2 141.1 120.2 191.8 70.7 191.8 70.7 182.5 83.8 182.5 83.8 172.8 70.7 172.8 70.7 161.7 83.8 161.7 83.8 152 70.7 152 70.7 141.1 120.2 141.1" fill="#c5a922"/>
      <path d="M120.2,115.6v9.6h-54.2c-2.6,0-4.8-2.1-4.8-4.8v-60.3c0-2.6,2.1-4.8,4.8-4.8h54.2v9.6h-49.4v11h-4.8v9.7h4.8v11.1h-4.8v9.7h4.8v9.3h49.4Z"/>
      <polygon points="120.2 64.9 120.2 115.6 70.7 115.6 70.7 106.3 83.8 106.3 83.8 96.6 70.7 96.6 70.7 85.5 83.8 85.5 83.8 75.8 70.7 75.8 70.7 64.9 120.2 64.9" fill="#c5a922"/>
      <rect x="70.7" y="172.8" width="13.1" height="9.7" fill="#231815"/>
      <rect x="70.7" y="152" width="13.1" height="9.7" fill="#231815"/>
      <rect x="70.7" y="96.6" width="13.1" height="9.7" fill="#231815"/>
      <rect x="70.7" y="75.8" width="13.1" height="9.7" fill="#231815"/>
      <rect x="65.9" y="172.8" width="4.8" height="9.7"/>
      <rect x="65.9" y="152" width="4.8" height="9.7"/>
      <rect x="65.9" y="96.6" width="4.8" height="9.7"/>
      <rect x="65.9" y="75.8" width="4.8" height="9.7"/>
    </g>
  </g>
</svg>